<svg width="154" height="154" viewBox="0 0 154 154" fill="none" xmlns="http://www.w3.org/2000/svg">
<path d="M97.1964 34.8314C90.6655 37.8975 89.9067 45.8771 88.5116 52.1396C88.1436 54.2783 84.3033 58.6935 85.2691 58.2719C85.5988 58.1492 107.805 49.1425 111.201 47.7398C111.63 47.4715 113.171 47.3028 111.201 46.7126C110.185 46.1188 109.315 45.3041 108.656 44.3287C104.877 39.9058 104.425 32.3708 97.1964 34.8314ZM89.4774 49.4721C89.991 43.3399 95.0041 30.5388 102.508 37.108C104.808 39.6529 106.034 46.4137 109.469 47.3795C107.391 48.0924 89.1784 55.1981 86.9402 56.2866C88.2714 54.2266 89.1373 51.9011 89.4774 49.4721ZM112.044 56.7235C108.472 58.2566 85.3075 67.8535 84.1577 68.4054C83.8281 73.5412 83.9507 91.8766 84.5256 91.524C86.3959 90.8035 109.17 78.6079 109.354 78.24C109.331 77.3355 112.841 56.1256 112.044 56.7235ZM109.844 58.0343C109.538 59.8433 107.138 78.1404 107.138 78.1404C107.138 78.1404 105.805 78.8379 103.727 79.8804C103.95 74.829 104.854 61.6523 104.938 60.0886L109.844 58.0343ZM104.731 60.1729C104.425 62.8557 103.482 78.9529 103.482 80.026C101.819 80.8845 99.7182 81.9577 97.4646 83.0922C97.4646 80.8769 97.5643 64.6954 97.4646 63.1624C99.8639 62.1429 102.294 61.154 104.731 60.1499V60.1729ZM97.2424 63.239C97.158 64.5881 97.0507 82.249 97.0354 83.2761L91.4474 86.0893C91.3861 80.9382 91.1024 67.4013 91.0181 65.7992L97.2424 63.239ZM84.3186 68.5281C86.0663 67.9072 90.3589 66.0598 90.7882 65.8759C90.7268 68.712 91.0794 85.1541 91.0948 86.2426C88.6955 87.4537 86.3959 88.5882 84.5256 89.4927C84.3186 84.1883 84.3646 68.5434 84.3186 68.5281ZM143.702 91.4397C146.063 91.9762 145.388 94.3142 145.779 95.073C146.477 94.6054 146.454 91.6006 148.178 91.6236C149.083 90.8035 145.656 92.1602 146.231 87.538C146.354 86.9631 145.756 86.7715 145.879 87.745C145.9 88.6105 145.674 89.4642 145.227 90.2056C144.591 91.34 143.127 90.8878 143.702 91.4397ZM145.902 89.7763C145.909 90.1664 146.043 90.5436 146.283 90.8507C146.524 91.1578 146.858 91.378 147.235 91.478C146.469 91.7923 146.109 93.0647 146.001 93.4326C145.981 92.9976 145.85 92.5751 145.62 92.2048C145.391 91.8346 145.071 91.5291 144.691 91.317C145.016 91.1989 145.302 90.992 145.516 90.7197C145.73 90.4474 145.864 90.1206 145.902 89.7763ZM125.106 54.5619C128.325 55.0755 127.628 57.4824 127.873 57.9729C128.693 58.0956 127.789 54.9068 131.077 54.5849C131.384 54.5849 131.491 54.5236 131.368 54.2783C131.1 54.01 127.996 54.4776 128.364 50.7446C128.364 50.6219 128.164 50.5146 128.042 50.7446C128.011 55.2594 124.178 53.6574 125.106 54.5619ZM128.118 52.8142C128.281 53.2002 128.525 53.5469 128.833 53.8311C129.141 54.1154 129.506 54.3305 129.904 54.4622C129.503 54.5787 129.134 54.7848 128.825 55.0651C128.515 55.3453 128.274 55.6922 128.118 56.0796C127.985 55.6854 127.758 55.3291 127.458 55.0409C127.158 54.7527 126.793 54.5411 126.394 54.4239C126.788 54.3107 127.149 54.1058 127.449 53.8261C127.749 53.5463 127.978 53.1996 128.118 52.8142ZM73.5872 15.2389C77.6498 14.9936 76.1781 19.0715 77.0749 18.121C77.0749 17.8067 77.2052 15.1775 79.6888 15.0549C80.302 13.9664 76.9753 16.1434 76.707 10.9463C76.523 10.9463 76.523 11.0076 76.5 11.5672C76.1934 15.7371 72.6214 14.4187 73.5872 15.2389ZM76.5614 13.0849C76.6428 13.5514 76.8601 13.9835 77.186 14.3271C77.5118 14.6707 77.9318 14.9105 78.3934 15.0166C77.736 15.3387 77.2125 15.8812 76.914 16.5496C76.7739 16.1398 76.5265 15.7749 76.1976 15.4932C75.8686 15.2114 75.4701 15.023 75.0436 14.9476C75.4221 14.7771 75.7549 14.5195 76.0147 14.1958C76.2745 13.872 76.4539 13.4913 76.5384 13.0849H76.5614ZM27.2811 50.0853C29.895 50.3153 29.642 51.7487 30.2399 52.9445C30.8148 51.3578 31.2901 50.392 33.0531 50.208C33.4823 49.3265 30.2016 50.7829 30.4009 46.6973C29.9103 46.0227 30.1403 47.2722 30.0559 47.9314C30.0296 48.2038 29.948 48.4679 29.8162 48.7078C29.6844 48.9476 29.5052 49.1581 29.2894 49.3265C28.5152 50.024 26.5452 49.4261 27.2811 50.0853ZM30.2629 48.5523C30.3978 48.9181 30.6164 49.2472 30.9012 49.5134C31.186 49.7796 31.5292 49.9755 31.9033 50.0853C31.1824 50.3888 30.6023 50.9525 30.2782 51.6644C30.1519 51.2749 29.9385 50.9192 29.6543 50.6244C29.3701 50.3295 29.0225 50.1033 28.6379 49.9627C29 49.8759 29.3363 49.7041 29.6189 49.4615C29.9015 49.2189 30.1222 48.9125 30.2629 48.5676V48.5523ZM149.389 126.478C150.355 121.61 136.274 121.472 137.255 126.194C136.09 131.912 150.685 131.974 149.389 126.478ZM137.754 124.86C139.287 121.902 150.67 122.952 148.776 126.072C146.768 128.478 136.642 127.72 137.754 124.891V124.86ZM149.006 127.812C147.994 131.644 136.09 130.954 137.508 125.903C139.501 128.616 147.649 128.264 149.152 126.11C149.188 126.691 149.139 127.275 149.006 127.842V127.812ZM100.416 136.941C98.6911 133.875 91.2174 134.273 89.2244 135.829C87.9903 136.596 88.0976 139.662 89.0558 140.682C91.8306 142.981 97.1504 142.629 99.427 141.234C100.914 140.229 100.546 138.604 100.416 136.941ZM88.9178 136.734C90.4509 133.783 101.834 134.825 99.9482 137.945C97.8939 140.329 87.7757 139.57 88.9178 136.734ZM100.193 139.693C99.082 143.525 87.2775 142.836 88.6955 137.784C90.6885 140.49 98.8367 140.145 100.339 137.968C100.333 138.548 100.271 139.125 100.155 139.693H100.193Z" fill="black"/>
<path d="M139.417 119.081C140.95 118.851 141.425 115.34 141.218 114.252C143.809 113.654 148.301 112.366 146.967 108.809C146.706 107.33 146.024 106.364 144.3 106.303C145.902 106.104 146.147 104.517 146.293 102.976C146.745 98.3769 140.927 99.4041 138.367 97.7253C140.85 96.7825 139.723 94.0307 138.964 92.1373C138.098 90.8419 136.128 90.6043 134.649 90.7423C133.683 87.7221 132.25 86.6337 129.084 87.3542C129.391 83.6212 124.094 82.8163 121.327 83.6595C120.881 82.9814 120.27 82.4279 119.551 82.0511C118.832 81.6743 118.029 81.4866 117.218 81.5056C116.827 79.2673 113.976 78.7077 112.764 78.5468C112.887 77.7802 116.214 53.1899 116.52 51.0743C117.954 43.5776 112.987 42.8571 110.089 39.7603C107.483 36.3109 105.329 31.957 103.236 31.5278C103.129 31.4818 102.907 31.3591 102.554 31.1982C90.1748 25.1732 71.0652 19.3936 58.9004 17.1707C57.1597 17.4495 55.4391 17.8413 53.7493 18.3434C42.8646 22.659 46.6052 31.4281 41.2242 34.9158C36.7936 37.706 37.6905 40.7875 37.8974 44.2139C38.618 52.8297 41.2625 72.0236 41.4311 72.8821C38.365 73.4723 38.1657 75.8946 39.1315 78.0562C36.5023 77.2896 32.5394 78.0562 31.5506 80.9307C31.4662 81.153 31.5506 81.2526 31.1826 81.2143C28.4921 81.3829 24.4065 82.594 25.495 85.9591C21.8769 85.8978 15.5761 89.6155 18.5349 93.4098C15.6987 93.9234 12.4946 95.878 13.9357 99.0208C11.6361 99.9406 8.82293 103.865 10.3866 105.789C5.51918 105.529 1.77851 108.296 5.08992 112.734C2.72901 115.463 5.49618 119.817 9.02989 119.242C10.08 125.872 17.1628 125.504 20.7501 121.894C23.5863 123.619 28.5151 124.27 30.5924 122.017C32.1714 123.757 35.5135 124.232 37.2612 122.423C40.5036 124.232 46.4596 123.35 48.1689 120.453C49.1118 123.473 54.7151 123.519 56.7924 122.569C54.6768 124.723 56.1715 127.129 58.3255 128.563C60.6251 129.82 63.8905 128.854 66.1288 127.536C66.1751 127.932 66.3383 128.305 66.5977 128.608C66.8571 128.912 67.2008 129.131 67.5852 129.237C66.0521 130.042 65.9065 130.947 66.0521 132.794C65.8451 138.42 80.7925 138.068 78.5772 131.606C80.9381 134.887 92.3748 134.105 90.7497 128.931C92.4017 129.861 94.3226 130.196 96.1921 129.881C96.0694 132.242 99.5188 132.648 101.305 132.342C99.1739 138.689 108.311 138.972 111.967 137.163C113.378 136.397 113.217 135.094 113.217 133.591C113.485 130.985 108.924 130.579 107.299 130.433C108.924 129.444 107.751 127.145 107.652 125.405C109.231 129.038 115.785 128.471 118.23 126.409C120.299 130.142 128.325 129.015 130.218 125.98C131.039 124.991 130.111 121.296 129.352 120.491C130.105 119.939 130.747 119.25 131.246 118.46C132.473 119.171 133.846 119.595 135.26 119.703C136.675 119.81 138.096 119.598 139.417 119.081ZM140.95 114.374C141.425 117.701 133.476 116.797 132.165 115.953C133.231 112.182 130.747 109.285 127.198 109.346C129.781 107.33 126.93 105.935 129.62 105.897C128.593 109.982 131.736 111.707 135.201 111.83C135.553 114.643 138.735 114.742 140.934 114.313C140.947 114.331 140.952 114.353 140.95 114.374ZM125.88 120.1C120.568 120.967 121.488 114.865 123.542 112.197C124.899 110.327 128.678 108.028 129.904 111.17C130.993 114.62 129.391 119.02 125.88 120.1ZM117.548 123.082C116.927 125.42 110.603 125.382 109.116 124.769C107.721 124.5 106.816 123.235 107.583 121.955C109.737 118.751 117.149 117.847 119.081 120.614C118.222 121.051 117.318 122.017 117.548 123.082ZM107.115 120.016C107.686 120.178 108.271 120.283 108.863 120.33C108.314 120.66 107.826 121.083 107.422 121.58C107.413 121.032 107.31 120.49 107.115 119.978V120.016ZM106.832 127.367C105.352 128.77 103.252 129.276 101.121 129.467C98.2004 129.996 94.0995 128.356 97.1962 125.811C99.5188 123.864 109.867 122.73 106.832 127.329V127.367ZM101.343 123.979C94.0381 125.581 97.5105 127.474 93.1336 126.792C89.416 126.716 88.2892 124.493 91.5316 122.852C93.9308 121.396 101.65 120.928 101.343 123.941V123.979ZM77.918 128.134C77.918 131.79 78.9298 129.912 75.9633 128.992C78.079 126.47 76.0477 124.025 78.8838 122.952C81.651 123.573 81.9499 123.205 84.1805 121.932C84.9011 122.07 85.8439 124.907 84.9471 125.052C82.7855 124.891 77.5501 125.604 77.918 128.095V128.134ZM73.1348 128.479C75.0052 126.999 76.3159 123.841 74.6679 121.618C77.619 122.814 77.4198 126.547 75.6721 128.908C74.8436 128.67 73.9938 128.513 73.1348 128.44V128.479ZM67.7691 120.346C69.4915 119.2 70.7348 117.463 71.2645 115.463C71.4255 117.188 73.3341 118.291 75.0972 117.847C76.2316 117.655 76.3926 116.735 77.5041 117.433C77.1292 118.339 77.0681 119.344 77.3307 120.289C77.5932 121.233 78.1642 122.063 78.9528 122.645C78.1845 122.921 77.5419 123.466 77.1438 124.178C77.0825 122.845 76.0783 121.94 74.7676 121.327C73.9037 120.628 72.8161 120.266 71.7058 120.306C70.5954 120.347 69.5374 120.789 68.7273 121.549C68.4243 121.125 68.0913 120.723 67.7308 120.346H67.7691ZM61.4299 120.967C60.8704 120.346 60.0885 119.855 59.391 119.073C64.0745 120.967 69.9307 116.505 69.8848 111.477C73.8937 116.268 66.4814 123.021 61.3916 120.928L61.4299 120.967ZM50.3152 95.7094C53.3814 94.5826 54.6538 93.1185 53.5423 89.8991C54.2952 90.509 55.2413 90.8298 56.2099 90.8036C57.3826 91.1102 56.0489 92.421 55.6963 93.2028C54.9297 94.8279 55.7576 95.832 56.6621 97.2041C54.0176 98.9748 50.7215 97.756 50.2769 95.6711L50.3152 95.7094ZM41.5155 104.517C40.381 108.257 29.5039 106.203 31.06 101.995C32.9533 105.061 39.9287 105.529 41.7914 103.122C41.7607 103.413 41.6381 103.965 41.5155 104.517ZM53.711 105.835C54.2245 109.959 48.9431 112.956 45.2791 111.339C45.2791 110.948 44.5126 110.802 44.298 110.25C48.1306 112.197 54.0712 107.391 52.5305 103.819C52.8908 104.295 53.2357 105.176 53.711 105.835ZM45.9307 119.303C43.6311 120.836 35.8048 121.212 36.3184 118.13C37.1002 114.397 52.1856 115.026 45.9307 119.303ZM36.1497 120.07C36.8549 121.603 33.5435 121.304 32.6237 120.99C30.5924 120.169 30.9143 120.461 30.853 118.261C30.2015 116.513 27.8559 116.889 29.1283 114.627C31.3283 112.535 35.2606 115.164 36.418 117.134C35.7205 117.931 35.9658 118.974 36.1497 120.085V120.07ZM28.6761 120.415C26.0622 121.266 18.2666 119.204 19.93 116.406C21.8616 113.248 35.8891 118.153 28.6761 120.43V120.415ZM19.4164 116.536C19.0714 117.502 19.2171 118.836 18.8875 119.924C16.4192 121.794 9.93439 122.99 9.3135 119.617C8.96856 116.061 20.4052 113.041 19.4164 116.551V116.536ZM18.1439 111.147C17.983 110.059 18.5349 108.196 17.3774 107.269C17.7955 107.049 18.1931 106.792 18.5655 106.502C18.7495 109.231 20.2672 111.04 22.9578 111.101C22.8898 111.809 22.6127 112.48 22.1616 113.03C21.7106 113.58 21.1062 113.982 20.4253 114.187C19.7445 114.392 19.0181 114.389 18.3388 114.18C17.6594 113.97 17.0579 113.563 16.6109 113.01C17.3237 112.611 18.1286 111.99 18.1439 111.147ZM13.0312 107.514C12.4767 107.177 11.9418 106.808 11.4291 106.41C14.6562 106.878 18.5119 105.03 19.746 101.849C20.8958 101.957 21.509 101.006 22.2065 102.424C20.7501 103.106 18.5732 104.21 18.5349 106.165C17.0401 107.131 14.7789 108.342 13.0312 107.514ZM14.8172 100.209C14.4297 99.5983 14.1328 98.9347 13.9357 98.2389C16.5649 101.175 23.5863 99.2814 25.2037 96.7059C26.5834 97.9783 26.4608 97.6717 25.4106 99.0055C22.8274 101.949 17.3008 102.447 14.7789 100.209H14.8172ZM36.4027 93.5171C34.9616 95.0502 32.4167 95.7707 30.2705 95.9163C23.1647 96.2459 22.9194 91.9151 29.0363 90.106C31.6195 88.9792 40.3043 89.7764 36.4027 93.5171ZM25.0044 95.0502C28.6991 97.618 35.8431 95.8703 37.6291 92.3213C40.0974 98.7908 24.5291 100.148 25.0044 95.0502ZM45.7007 87.2852C44.321 86.2197 46.8505 85.7521 47.4637 84.9856C48.3069 86.833 50.7521 87.2852 52.6378 86.9786C52.4458 87.4953 52.4458 88.0639 52.6378 88.5806C50.7138 87.1089 48.0846 87.1932 45.7237 87.2699L45.7007 87.2852ZM41.6304 85.6218C41.3916 85.3316 41.1159 85.0739 40.8102 84.8553C46.5439 86.1507 46.6206 82.3717 48.4756 83.1306C48.1914 83.7421 47.7892 84.2915 47.2921 84.7472C46.795 85.2029 46.2128 85.5559 45.5789 85.7859C44.945 86.016 44.2719 86.1186 43.5983 86.0878C42.9246 86.057 42.2637 85.8934 41.6534 85.6065L41.6304 85.6218ZM36.4794 86.2197C33.9115 86.0741 31.6962 85.7675 31.7345 82.6477C32.9303 84.5794 35.5672 84.6407 37.6675 84.4107C39.4995 84.2114 38.9859 83.5675 40.588 85.0086C39.3629 85.7774 37.9486 86.1914 36.5023 86.2044L36.4794 86.2197ZM38.8786 76.3008C42.2897 79.3669 45.3941 75.6416 46.6665 77.5119C44.6736 79.5279 38.7789 80.1028 38.9016 76.2855L38.8786 76.3008ZM40.6263 79.16C42.1096 79.4478 43.6417 79.3555 45.0798 78.8917C44.0143 80.5551 45.716 82.1801 47.2568 82.8163C43.6311 86.8406 35.7435 84.3801 40.6263 79.16ZM56.8691 84.1118C57.8119 84.771 58.7777 85.4072 59.7206 86.0434C57.9575 86.6796 55.8879 88.2817 56.3095 90.4586C54.4238 90.5966 52.2469 89.1172 52.8831 86.9403C53.6996 86.7562 54.4713 86.4112 55.1531 85.9256C55.8348 85.4399 56.4129 84.8233 56.8537 84.1118H56.8691ZM79.7193 99.5727C81.0071 99.7567 83.0231 98.0933 84.3952 97.641C85.6906 103.244 78.2629 105.36 76.5536 100.247C77.2224 99.798 77.7532 99.1717 78.0866 98.4382C78.6155 98.8292 79.1674 99.2048 79.7193 99.5727ZM108.357 83.6212C110.925 84.4567 114.359 84.9703 116.674 83.1459C116.245 87.6838 109.553 85.9131 107.046 84.518C107.506 84.2344 107.935 83.9278 108.365 83.6212H108.357ZM120.882 87.2545C120.391 90.3207 114.42 89.6538 112.695 88.297C112.833 87.8678 113.04 87.2086 113.247 86.5723C115.631 87.5765 119.219 87.8908 121.051 85.9361C121.035 86.2657 120.974 86.7563 120.89 87.2545H120.882ZM124.255 91.5854C130.134 92.6049 128.34 95.4181 123.657 95.7937C121.457 96.1846 113.531 94.7665 117.847 92.1603C119.882 91.3396 122.114 91.1396 124.262 91.5854H124.255ZM128.854 95.855C128.925 96.716 129.127 97.5611 129.452 98.3616C128.486 99.0208 128.609 100.309 128.647 101.52C126.784 101.382 125.098 100.086 123.887 98.6912C123.887 99.2048 124.73 99.8793 125.182 100.332C124.853 100.738 122.285 101.788 122.116 100.807C122.009 100.086 122.116 99.5267 121.971 98.7065C124.186 98.7678 128.21 98.5685 128.333 95.8167C128.5 95.8469 128.669 95.8597 128.839 95.855H128.854ZM140.498 100.454C140.72 103.39 139.102 104.103 136.558 104.417C133.415 104.701 128.279 104.54 128.892 100.27C130.832 102.999 138.98 102.631 140.482 100.477L140.498 100.454ZM140.375 106.586C138.627 106.832 137.01 108.02 135.469 108.886C132.878 109.193 127.949 106.586 130.947 104.095C131.708 104.376 132.501 104.564 133.307 104.655C135.952 105.276 139.256 103.298 140.36 106.594L140.375 106.586ZM135.14 111.492C131.813 111.37 129.007 109.806 129.774 106.196C130.433 108.372 133.269 109.216 135.385 109.262C134.749 110.097 134.91 110.542 135.124 111.5L135.14 111.492ZM128.095 106.832C128.279 110.733 117.003 114.121 116.597 108.947C119.426 110.795 126.922 107.713 127.597 105.115C127.829 105.667 127.991 106.247 128.08 106.839L128.095 106.832ZM121.626 116.176C121.465 116.444 121.833 117.364 121.465 117.594C121.012 117.648 120.554 117.56 120.153 117.343C119.753 117.126 119.429 116.791 119.226 116.383C120.127 115.953 120.886 115.274 121.413 114.426C121.94 113.578 122.213 112.598 122.2 111.6C122.854 111.442 123.499 111.25 124.132 111.025C122.707 112.391 121.813 114.219 121.61 116.183L121.626 116.176ZM118.996 116.176C116.39 117.226 114.459 116.298 112.718 114.206C113.31 114.729 114.023 115.096 114.792 115.274C115.562 115.453 116.363 115.436 117.125 115.226C117.886 115.016 118.583 114.619 119.152 114.071C119.721 113.524 120.144 112.843 120.384 112.09C120.506 111.554 121.388 111.883 121.917 111.661C121.918 112.618 121.641 113.555 121.12 114.358C120.599 115.16 119.856 115.795 118.981 116.183L118.996 116.176ZM101.42 117.218C98.9363 119.579 95.9775 119.587 93.103 117.985C96.1231 118.644 99.2352 116.36 100.929 113.899C101.696 112.136 101.918 113.133 103.535 113.217C103.263 114.744 102.517 116.146 101.404 117.226L101.42 117.218ZM89.347 124.822C89.347 124.822 89.3086 124.822 89.347 124.945C88.5038 124.224 88.3581 123.013 88.3581 121.756C89.7219 122.245 91.1947 122.346 92.6124 122.047C91.3629 122.469 89.5003 123.167 89.3316 124.83L89.347 124.822ZM86.7791 123.833C87.492 126.087 88.887 125.428 85.5526 125.045C85.7136 124.278 85.3687 121.886 84.1959 121.695C86.7331 119.349 84.6558 119.656 86.9707 121.105C86.5767 121.963 86.5033 122.933 86.7638 123.841L86.7791 123.833ZM77.9947 121.35C77.6414 120.77 77.4228 120.119 77.3552 119.444C77.2875 118.768 77.3725 118.086 77.6037 117.448C80.5779 118.307 84.1576 117.939 86.6564 115.915C86.8711 120.001 81.0914 125.911 77.9793 121.357L77.9947 121.35ZM71.4025 114.635C71.3412 112.542 70.636 111.86 71.8777 109.913C72.9258 109.955 73.9714 109.782 74.9498 109.403C75.9281 109.025 76.8183 108.45 77.5654 107.713C80.1333 112.251 73.7327 109.154 75.4268 114.842C75.6567 115.54 75.4651 116.444 76.3313 116.873C74.2846 118.483 71.0805 117.28 71.3872 114.643L71.4025 114.635ZM70.8659 109.338C70.2178 108.978 69.6515 108.487 69.2025 107.897C72.491 109.729 78.0176 106.096 77.4811 102.662C81.0148 106.494 74.5223 110.733 70.8276 109.484C70.8736 109.446 70.8966 109.384 70.8506 109.346L70.8659 109.338ZM59.1533 106.548C58.9399 105.977 58.7607 105.393 58.6168 104.8C60.9163 107.161 68.9879 105.912 69.8081 103.505C71.3872 108.464 60.7324 109.055 59.1533 106.548ZM61.4529 101.29C63.9748 100.079 72.7209 100.654 68.6583 104.432C60.8167 107.951 54.5925 103.482 61.4529 101.297V101.29ZM64.9636 97.986C65.7285 98.3016 66.5514 98.4518 67.3785 98.4267C68.2055 98.4016 69.0178 98.2018 69.7621 97.8403C69.832 98.3278 70.0182 98.7913 70.305 99.1916C70.5919 99.5919 70.971 99.9171 71.4102 100.14C70.9916 100.199 70.5923 100.354 70.2429 100.592C69.8934 100.83 69.6031 101.145 69.3942 101.512C67.8611 100.301 65.4925 100.263 63.5455 100.485C63.9621 100.211 64.3078 99.8429 64.5543 99.4099C64.8009 98.9768 64.9411 98.4914 64.9636 97.9936V97.986ZM76.4156 100.347C76.569 100.933 76.8493 101.479 77.2366 101.945C77.624 102.411 78.109 102.786 78.6573 103.044C79.2056 103.302 79.804 103.437 80.41 103.438C81.016 103.44 81.615 103.308 82.1646 103.053C83.7513 102.026 83.483 102.11 84.7325 103.175C88.7414 107.552 82.2489 109.308 79.2748 106.954C77.8337 106.402 79.0295 105.559 78.8608 104.432C78.0176 103.099 77.0365 100.899 74.9439 100.922C75.4628 100.817 75.9603 100.625 76.4156 100.355V100.347ZM84.5255 100.569C86.2502 102.623 87.0321 100.385 87.9979 103.566C88.3411 104.36 88.9224 105.027 89.6612 105.475C90.7497 108.541 85.4147 108.618 85.5526 107.246C87.2007 105.46 85.3533 103.053 83.6057 102.049C84.0049 101.622 84.3173 101.122 84.5255 100.577V100.569ZM89.9525 98.2696C90.9184 99.1358 92.7657 98.6605 93.5016 99.1741C95.2493 102.194 101.244 101.803 103.466 100.983C103.436 101.307 103.506 101.633 103.668 101.916C103.83 102.199 104.076 102.424 104.371 102.562C104.036 102.698 103.751 102.932 103.551 103.232C103.351 103.533 103.247 103.887 103.252 104.249C103.03 104.141 102.761 104.448 102.738 103.835C101.06 100.73 92.9267 101.06 91.2403 103.068C90.972 103.543 90.8264 103.582 90.2132 103.482C84.8781 102.999 89.048 97.2271 89.9525 98.2542V98.2696ZM96.2764 94.5596C97.8095 93.6934 107.506 94.4523 104.524 97.5107C100.132 100.516 88.6188 97.0048 96.2764 94.5442V94.5596ZM101.427 89.6308C99.8944 90.3283 99.5188 92.3213 99.8944 93.9234C99.1855 93.8596 98.4724 93.8596 97.7635 93.9234C97.6255 91.2175 99.2582 89.7841 101.427 89.6155V89.6308ZM105.015 90.6809C105.015 90.3897 105.015 89.5695 105.858 90.0447C107.115 90.4579 108.443 90.6041 109.76 90.474C109.085 91.6238 110.212 93.1262 111.07 93.9693C105.781 95.648 106.893 92.49 105.015 90.6809ZM128.095 94.4139C128.34 97.2731 126.715 98.0933 124.155 98.3769C120.951 98.6912 115.877 98.4229 116.49 94.23C118.452 96.9205 126.6 96.5832 128.08 94.4139H128.095ZM125.343 100.477C125.835 100.864 126.383 101.174 126.968 101.397C126.263 102.024 125.428 102.486 124.523 102.752C123.617 103.017 122.665 103.078 121.733 102.93C122.045 102.418 122.174 101.816 122.101 101.221C122.658 101.381 123.246 101.397 123.811 101.267C124.375 101.137 124.897 100.865 125.328 100.477H125.343ZM125.757 103.62C131.889 105.567 118.529 111.032 116.758 108.625C115.141 105.421 124.078 103.183 125.711 103.62H125.757ZM116.62 109.568C116.965 111.17 118.421 112.013 120.146 111.868C119.922 112.656 119.488 113.369 118.891 113.93C118.293 114.492 117.555 114.88 116.754 115.055C115.953 115.229 115.12 115.184 114.343 114.922C113.566 114.66 112.875 114.193 112.343 113.57C113.991 112.933 113.876 110.802 114.129 109.216C114.889 109.59 115.765 109.659 116.574 109.407C116.579 109.462 116.59 109.516 116.605 109.568H116.62ZM112.787 110.373C112.111 110.926 111.313 111.311 110.459 111.496C109.605 111.681 108.719 111.662 107.874 111.439C110.442 106.617 106.602 105.406 103.543 104.003C103.552 103.795 103.608 103.592 103.706 103.408C103.804 103.225 103.942 103.065 104.109 102.942C104.277 102.818 104.47 102.734 104.674 102.695C104.879 102.656 105.089 102.663 105.291 102.715C105.229 106.142 111.308 106.287 113.424 105.996C113.842 106.689 114.005 107.507 113.885 108.307C113.765 109.108 113.368 109.841 112.764 110.381L112.787 110.373ZM93.5169 118.399C95.5865 121.465 87.3847 120.169 86.5338 118.238C86.8082 117.461 86.933 116.639 86.9017 115.815C89.3776 115.792 91.4703 116.904 93.5169 118.399ZM87.4383 114.566C85.9052 111.446 91.3783 107.2 93.4709 109.745C91.8919 111.531 90.2515 114.344 91.4396 116.705C86.9324 114.643 86.5031 116.781 87.446 114.558L87.4383 114.566ZM85.1387 113.799C82.5708 115.333 76.3543 115.509 75.5494 113.332C74.6526 108.748 91.6542 109.2 85.1234 113.776L85.1387 113.799ZM86.8404 111.791C86.1352 108.909 79.9416 109.967 78.3243 110.312C78.4406 109.717 78.4037 109.102 78.2169 108.526C79.819 109.798 82.5555 110.411 84.3492 109.101C85.361 109.867 87.492 110.289 88.4195 108.94C88.5343 109.117 88.6922 109.263 88.8784 109.364C89.0647 109.464 89.2733 109.516 89.4849 109.515C88.3675 110.196 87.4972 111.216 87.0014 112.427C86.9324 112.243 86.9171 112.113 86.8251 111.768L86.8404 111.791ZM78.1863 106.878C78.2476 106.778 78.3089 106.655 78.3702 106.533C80.0719 108.135 83.1151 108.993 85.269 107.514C83.8126 111.278 76.2546 108.848 78.1863 106.878ZM90.7727 106.058C90.7727 107.767 92.827 108.587 94.3677 108.894C94.0567 109.151 93.7599 109.425 93.4786 109.714C93.1949 108.051 90.7727 108.664 89.6459 109.369C86.9784 108.932 90.811 107.269 89.9525 105.536C90.1978 105.782 90.8724 105.444 90.7727 106.058ZM88.5344 108.464C87.6683 109.737 85.8669 109.86 84.4642 108.955C84.7983 108.55 85.0886 108.11 85.3303 107.644C85.8438 108.017 86.4468 108.248 87.0783 108.313C87.7097 108.377 88.347 108.274 88.9254 108.012C88.8056 108.172 88.675 108.323 88.5344 108.464ZM92.3671 117.295C89.7609 114.888 92.5281 110.841 94.5594 108.978C95.1956 109.039 96.1844 109.2 97.0276 109.2C97.5412 111.009 99.5342 112.013 101.236 112.673C99.8484 115.746 95.2646 119.035 92.3748 117.28L92.3671 117.295ZM93.0033 108.234C91.0103 107.292 90.972 106.939 90.949 104.662C92.942 107.376 101.09 107.023 102.593 104.846C103.359 109.798 95.8165 109.285 93.011 108.234H93.0033ZM101.336 102.754C106.433 106.694 92.0145 107.253 91.1713 104.394C90.7727 100.845 99.9481 101.788 101.343 102.754H101.336ZM102.869 104.478C105.352 104.44 109.131 106.778 108.349 109.262C106.77 111.561 101.611 110.519 100.117 108.855C102.715 108.135 102.945 107.108 102.846 104.478H102.869ZM113.447 105.69C110.381 106.027 104.862 105.958 105.482 101.581C107.475 104.295 115.624 103.942 117.126 101.765C117.379 104.417 115.8 105.429 113.447 105.69ZM113.286 98.9518C119.157 100.01 117.371 102.784 112.688 103.168C110.488 103.574 102.562 102.141 106.878 99.5267C108.906 98.7013 111.135 98.5011 113.278 98.9518H113.286ZM117.264 103.551C117.343 103.137 117.379 102.715 117.371 102.294C119.035 102.708 121.15 102.095 121.825 100.324C122.499 103.39 119.564 104.494 117.126 104.157C117.225 103.965 117.278 103.752 117.279 103.536L117.264 103.551ZM121.741 99.3811C121.948 101.29 118.536 103.014 117.371 101.803C117.632 99.3811 114.658 98.9058 112.772 98.5609C113.017 97.9476 112.504 97.2654 112.542 96.6062C113.102 94.9428 114.987 96.2383 116.321 96.1156C116.491 96.5482 116.755 96.9379 117.093 97.2572C117.43 97.5765 117.834 97.8174 118.276 97.963C119.824 98.8828 121.794 98.1163 121.733 99.3657L121.741 99.3811ZM106.671 94.0153C108.089 95.1651 110.02 94.3833 111.477 94.322C112.072 94.8175 112.736 95.2254 113.447 95.5331C113.179 95.5853 112.932 95.7114 112.733 95.897C112.534 96.0826 112.391 96.3204 112.32 96.5832C111.147 94.9352 108.763 94.8585 106.878 95.6174C106.856 95.0754 106.784 94.5365 106.663 94.0077L106.671 94.0153ZM116.275 95.8167C112.105 96.0237 107.176 90.451 111.346 90.129C111.86 92.1833 114.114 93.5554 116.229 94.0537C116.204 94.6417 116.22 95.2308 116.275 95.8167ZM106.548 95.4411C107.107 98.2773 104.31 100.332 105.85 99.2737C106.25 98.7841 106.545 98.2183 106.719 97.6109C106.893 97.0034 106.942 96.3669 106.862 95.74C109.077 94.8969 112.81 95.4334 112.466 98.4919C109.714 98.2466 104.54 98.3922 105.214 102.44C105.007 102.449 104.8 102.416 104.606 102.343C104.412 102.27 104.235 102.159 104.085 102.016C103.935 101.872 103.816 101.7 103.735 101.51C103.654 101.319 103.612 101.114 103.612 100.906C104.103 100.71 104.545 100.409 104.908 100.025C105.674 98.8752 105.444 97.641 105.337 96.1923C104.724 94.7742 102.777 94.4063 101.251 94.0767C98.8903 94.299 100.04 90.7729 101.251 89.9681C104.402 88.4657 106.548 93.0035 106.548 95.4411ZM94.1914 97.7407C97.3112 99.427 103.16 99.4884 105.199 97.2271C106.51 103.145 91.8689 102.34 93.6549 97.2271C93.8227 97.4204 94.0131 97.5928 94.2221 97.7407H94.1914ZM90.8034 103.781C90.7361 104.271 90.7002 104.765 90.6961 105.26C90.6961 105.406 90.7804 105.467 90.4124 105.421C88.9714 105.299 88.4578 104.088 87.8446 102.838C88.6919 103.508 89.7557 103.844 90.834 103.781H90.8034ZM70.0227 103.122C70.1837 102.654 69.4095 101.911 69.6088 101.443C69.8552 101.117 70.1721 100.851 70.5359 100.666C70.8996 100.48 71.3007 100.379 71.7091 100.37C72.422 100.37 73.2422 101.067 74.0853 100.968C72.5098 101.276 71.0886 102.118 70.0611 103.352C70.0384 103.277 70.0357 103.198 70.0534 103.122H70.0227ZM70.0227 105.897C70.1248 105.133 70.1248 104.36 70.0227 103.597C71.3795 102.225 73.3725 100.845 75.5264 101.297C79.2441 102.386 75.9403 106.74 73.7021 107.583C72.6366 108.349 68.3364 108.549 68.9343 107.008C69.41 106.744 69.8089 106.361 70.0917 105.897H70.0227ZM75.8867 116.16C75.7952 115.405 75.6517 114.657 75.4574 113.922C77.964 116.39 85.5373 115.363 86.7331 112.32C89.1707 117.724 78.125 118.813 75.8867 116.16ZM85.7673 119.817C86.0411 119.374 86.2745 118.907 86.4648 118.422C87.3918 119.429 88.6098 120.123 89.9493 120.406C91.2888 120.689 92.6832 120.547 93.9385 120.001C93.9308 123.366 86.9324 121.687 85.7826 119.817H85.7673ZM93.6549 121.518C94.4214 120.867 94.2911 119.732 93.9615 118.629C94.526 118.96 95.157 119.161 95.8088 119.219C95.8639 119.651 96.009 120.066 96.2348 120.439C96.4606 120.811 96.762 121.132 97.1196 121.38C95.725 121.324 94.3309 121.503 92.9957 121.909C93.2351 121.806 93.4616 121.675 93.6702 121.518H93.6549ZM102.853 112.818C100.738 112.366 98.2541 111.285 97.1886 109.177C98.0088 109.346 99.1586 108.733 100.025 109.055C101.803 111.117 106.356 111.508 108.273 109.752C107.314 113.125 106.004 113.225 102.884 112.818H102.853ZM107.744 111.623C109.875 112.282 112.673 111.623 113.799 109.446C113.899 114.129 109.714 114.972 106.487 113.002C106.785 112.874 107.054 112.686 107.276 112.448C107.498 112.211 107.667 111.929 107.774 111.623H107.744ZM128.172 106.104C127.513 101.029 119.525 104.026 117.333 106.019C114.826 107.966 117.333 109.085 115.915 109.323C112.795 109.653 114.987 107.537 113.715 105.935C116.635 105.628 116.367 104.172 117.548 104.402C120.69 104.708 120.667 102.869 122.492 103.252C123.357 103.312 124.225 103.189 125.039 102.889C125.853 102.589 126.594 102.12 127.214 101.512C127.543 101.819 128.747 101.428 128.693 102.225C128.864 102.653 129.128 103.037 129.466 103.35C129.805 103.663 130.208 103.896 130.648 104.034C129.881 104.203 129.988 105.429 129.498 105.659C129.029 105.66 128.573 105.816 128.202 106.104H128.172ZM116.222 93.7777C115.11 93.7777 110.618 90.9875 111.768 89.9451C112.489 89.7228 112.282 89.2475 112.611 88.412C114.144 89.8224 116.551 89.5388 118.36 89.7841C118.856 90.4609 119.585 90.9304 120.407 91.1025C118.759 91.3708 116.222 92.076 116.252 93.7777H116.222ZM106.862 84.6407C108.587 85.8978 110.825 86.1737 112.918 86.4114C111.385 89.1632 106.08 87.7221 104.11 86.4114L106.862 84.6407ZM103.919 86.5723C106.034 88.2587 110.817 89.0176 112.711 87.3389C112.358 92.0224 104.187 90.1904 102.57 87.4232C103.03 87.1472 103.482 86.8636 103.949 86.5723H103.919ZM102.386 87.5382C103.004 88.5618 103.953 89.3434 105.076 89.7534C104.982 89.8565 104.91 89.9775 104.864 90.1093C104.818 90.241 104.799 90.3807 104.808 90.52C103.022 88.7109 99.3042 88.9026 97.9551 91.3632C97.0659 92.5743 98.2617 94.138 96.422 94.138C96.4238 93.6811 96.3195 93.2301 96.1173 92.8204C95.9152 92.4107 95.6206 92.0536 95.2569 91.7771C97.7098 90.451 100.094 89.0176 102.432 87.5382H102.386ZM95.1189 91.8921C98.4227 95.648 92.965 93.5171 93.3099 97.0431C92.587 96.9859 91.8887 96.7546 91.2747 96.3688C90.6607 95.983 90.1492 95.4543 89.7839 94.8279C91.5546 93.9234 93.3789 92.9192 95.1649 91.8921H95.1189ZM93.3559 98.6452C92.2665 98.7927 91.158 98.6019 90.1805 98.0988C89.203 97.5956 88.4036 96.8044 87.8906 95.832C88.4655 95.5484 89.0404 95.2418 89.6153 94.9275C89.9728 95.612 90.5005 96.193 91.1475 96.6146C91.7946 97.0361 92.5393 97.284 93.3099 97.3344C93.3099 97.3344 93.2256 98.5532 93.4019 98.6452H93.3559ZM87.7449 95.9163C88.1171 96.7155 88.6837 97.4086 89.393 97.9323C88.765 98.3021 88.2388 98.8221 87.8615 99.4456C87.4842 100.069 87.2677 100.777 87.2313 101.504C86.7408 101.566 84.3569 101.067 84.6251 100.102C85.1617 99.1434 84.2572 97.9323 84.8704 97.3727C85.8516 96.9205 86.7868 96.4529 87.7909 95.9163H87.7449ZM75.3884 100.516C74.5309 100.822 73.5938 100.822 72.7363 100.516C73.6305 100.52 74.5056 100.257 75.2488 99.7595C75.9921 99.2622 76.5693 98.5537 76.9062 97.7253C78.8608 98.4229 76.5076 100.14 75.4344 100.539L75.3884 100.516ZM73.1502 100.209C72.3973 100.259 71.6513 100.038 71.0478 99.5852C70.4443 99.1322 70.0235 98.4777 69.8618 97.7407C70.4632 97.4086 70.9856 96.9503 71.3932 96.3972C71.8007 95.8441 72.0837 95.2094 72.2227 94.5366C73.3955 95.6097 75.9403 96.5296 76.5536 97.7407C76.2608 98.4134 75.7967 98.9974 75.2075 99.4346C74.6184 99.8717 73.9248 100.147 73.1962 100.232L73.1502 100.209ZM69.7621 97.4724C68.8173 98.0357 67.7142 98.2746 66.6209 98.1529C65.5277 98.0311 64.5042 97.5552 63.7065 96.7979C66.2054 98.1546 70.7663 96.2613 70.9119 93.6551C73.1348 94.4369 71.0575 96.7365 69.8081 97.4954L69.7621 97.4724ZM57.237 97.5797C56.9855 97.1813 56.7117 96.7974 56.4168 96.4299C58.1798 97.3498 61.0927 97.4954 62.5951 95.832C62.9017 96.2 63.147 96.5066 63.6835 97.0661C62.8144 97.8284 61.7237 98.2919 60.5716 98.3885C59.4196 98.4851 58.2669 98.2097 57.283 97.6027L57.237 97.5797ZM56.7618 92.03C57.7736 96.4299 62.1275 94.046 62.4494 95.5867C59.3833 98.3156 53.0441 96.1156 56.7234 91.9074C56.7385 91.9624 56.7675 92.0126 56.8077 92.053L56.7618 92.03ZM70.7279 93.5171C70.176 96.8285 63.8292 98.3616 62.5414 95.0502C63.6451 94.9534 64.7074 94.5832 65.6322 93.9729C66.557 93.3626 67.3151 92.5316 67.8381 91.5548C71.1802 93.816 70.7279 93.4558 70.7279 93.5171ZM67.1406 92.1603C64.841 95.3644 57.6126 96.3303 56.8691 91.4475C59.4369 93.6014 63.6069 92.214 65.9908 90.2747C66.5657 90.8266 68.1677 91.1562 67.1406 92.1757V92.1603ZM59.6209 92.1603C54.3165 91.8231 56.7924 86.9019 60.0502 86.2427C61.9665 87.5382 63.7678 88.7723 65.6995 90.0754C63.999 91.4948 61.8347 92.2371 59.6209 92.1603ZM53.5423 92.6739C51.695 96.9052 42.0444 96.8208 41.7607 92.1603C44.4053 95.0732 52.7221 94.253 53.4657 90.5813C53.5798 91.2728 53.6055 91.9759 53.5423 92.6739ZM41.6381 98.0396C40.105 97.9936 35.3909 96.2919 38.25 95.1191C38.9827 95.444 39.7881 95.5697 40.5849 95.4835C41.3817 95.3974 42.1416 95.1025 42.7879 94.6286C43.6142 95.2578 44.5786 95.6808 45.6011 95.8627C45.2255 97.5567 43.2785 98.3002 41.6381 98.055V98.0396ZM46.5822 87.5842C54.5541 86.8176 55.5583 92.5743 47.939 93.6014C40.5266 94.23 39.1545 88.3277 46.5822 87.5995V87.5842ZM41.4695 92.329C41.599 93.1626 42.0037 93.929 42.6193 94.5059C41.9416 94.9109 41.18 95.1546 40.3932 95.2184C39.6064 95.2822 38.8154 95.1643 38.0814 94.8739C38.388 94.276 38.0814 93.4558 37.9434 92.5743C38.5173 92.7703 39.1243 92.8509 39.7294 92.8114C40.3346 92.772 40.9259 92.6132 41.4695 92.3443V92.329ZM38.9859 104.302C36.418 104.486 29.2126 103.313 31.7422 99.7796C35.2606 96.9052 47.2031 101.995 38.9859 104.318V104.302ZM36.7936 98.7908C32.2711 98.4612 30.715 98.5072 30.715 103.206C30.3349 102.729 29.819 102.379 29.2356 102.202C27.7026 100.431 28.3541 99.0208 30.4468 98.4382C31.8035 98.6452 33.3596 98.0703 34.7547 97.8633C36.0632 98.0622 37.3236 98.5014 38.4723 99.1588C37.9214 98.9997 37.3606 98.8768 36.7936 98.7908ZM44.2673 110.618C44.4053 110.825 44.9035 111.048 45.1488 111.5C42.7879 113.884 35.2682 114.374 35.5135 109.898C38.595 112.282 41.6381 111.216 44.2673 110.618ZM42.8492 115.34C40.8332 115.463 38.388 115.547 36.6633 116.919C36.4794 116.406 35.5595 115.877 35.4139 115.256C35.5183 114.79 35.757 114.366 36.1003 114.035C36.4437 113.704 36.8766 113.481 37.3455 113.393C38.8786 113.309 40.5036 113.907 42.1287 113.393C42.1438 114.105 42.3975 114.79 42.8492 115.34ZM31.2669 113.616C29.7339 113.37 28.0628 114.704 28.6761 116.406C27.0526 115.687 25.3182 115.252 23.548 115.118C23.7927 114.352 24.2388 113.666 24.8395 113.132C25.4402 112.598 26.1735 112.235 26.9626 112.081C27.7517 111.928 28.5676 111.989 29.3249 112.259C30.0821 112.529 30.7529 112.997 31.2669 113.616ZM31.7192 113.654C30.1861 112.427 30.5311 111.316 32.5777 110.68C33.3442 111.4 35.0229 110.841 35.5135 111.446C35.6592 112.312 36.5637 112.78 37.4298 113.11C36.8809 113.192 36.3714 113.444 35.9728 113.83C35.5742 114.216 35.3064 114.717 35.2069 115.264C34.2018 114.436 33.0007 113.882 31.7192 113.654ZM35.2606 108.794C35.192 109.494 35.2386 110.201 35.3985 110.887C34.4832 110.989 33.5579 110.826 32.7319 110.419C31.906 110.011 31.2141 109.375 30.738 108.587C31.8725 107.361 31.6655 106.042 31.2133 104.379C32.0725 105.206 33.0957 105.843 34.2167 106.25C35.3377 106.656 36.5316 106.823 37.7211 106.74C37.1743 106.855 36.6641 107.103 36.2352 107.461C35.8062 107.819 35.4716 108.277 35.2606 108.794ZM22.0532 110.703C21.2099 110.565 20.4389 110.143 19.8675 109.507C19.2961 108.872 18.9585 108.061 18.9105 107.207C21.4783 110.434 30.1631 108.74 31.175 105.383C32.1944 110.005 25.357 111.324 22.0456 110.703H22.0532ZM22.3829 102.34C22.2602 102.179 22.0992 101.957 21.7696 101.573C23.6783 101.037 25.7939 99.8486 26.5758 97.8327C27.5707 98.1521 28.5999 98.3528 29.6419 98.4306C29.2718 98.5484 28.9408 98.7648 28.6844 99.0566C28.428 99.3483 28.2559 99.7044 28.1866 100.087C28.1172 100.469 28.1533 100.863 28.2908 101.226C28.4284 101.589 28.6623 101.908 28.9674 102.148C26.8072 101.496 24.4938 101.564 22.3752 102.34H22.3829ZM23.433 102.34C25.6636 101.842 28.9367 101.435 30.4544 103.551C32.5854 107.598 24.7208 108.871 22.4212 108.503C15.8443 107.537 19.6157 103.145 23.4253 102.302L23.433 102.34ZM16.4499 113.071C16.8322 113.585 17.3388 113.993 17.9221 114.258C18.5054 114.522 19.1463 114.634 19.7847 114.582C20.423 114.531 21.0379 114.318 21.5714 113.964C22.105 113.61 22.5398 113.126 22.8351 112.558C23.3487 111.998 22.8351 110.956 23.7779 111.117C26.2845 111.017 28.8907 110.664 30.6154 108.717C30.9854 109.443 31.5475 110.053 32.2404 110.48C31.7894 110.615 31.3833 110.87 31.0649 111.217C30.7465 111.563 30.5276 111.99 30.4314 112.45C26.6524 110.335 24.7054 112.68 23.0421 115.08C22.4901 114.98 21.9234 114.997 21.3783 115.129C20.8332 115.261 20.3216 115.505 19.8763 115.846C18.2359 113.83 16.3656 115.601 16.1203 113.953C16.0973 113.677 15.6604 113.248 16.4422 113.064L16.4499 113.071ZM15.875 113.914C15.9578 114.218 16.0682 114.513 16.2046 114.796C15.8672 114.831 15.532 114.885 15.2005 114.957C15.5075 114.669 15.7368 114.307 15.8673 113.907L15.875 113.914ZM47.617 117.195C47.1265 115.448 44.6812 115.448 43.1022 115.348C41.0095 112.435 44.3133 113.416 45.4018 111.63C46.2541 111.973 47.1726 112.12 48.0894 112.061C49.0062 112.001 49.8978 111.736 50.6985 111.285C50.6985 111.676 51.7026 112.68 51.0894 113.071C50.2322 113.444 49.4724 114.009 48.8689 114.723C48.2654 115.437 47.8344 116.28 47.6094 117.188L47.617 117.195ZM52.4768 104.249C53.1514 109.361 43.7691 113.117 42.9719 107.744C42.7879 103.551 51.4114 100.125 52.4768 104.249ZM43.8534 110.204C42.7718 110.749 41.5827 111.045 40.3723 111.073C39.1619 111.101 37.9604 110.859 36.8549 110.365C32.1101 107.966 40.9406 105.897 42.8032 106.594C42.2513 108.303 43.0179 109.116 43.8534 110.166V110.204ZM42.1593 102.118C41.5614 99.6953 36.3874 97.825 34.8236 97.6794C35.6733 97.3056 36.4514 96.7868 37.1232 96.1463C38.1887 98.101 41.8834 98.5685 43.5084 98.2236C43.8256 99.1239 44.4049 99.9088 45.1718 100.477C44.7962 101.627 43.3781 102.669 42.1593 102.118ZM43.6387 98.2159C44.182 98.0805 44.6779 97.7988 45.0724 97.4016C45.467 97.0043 45.7453 96.5065 45.877 95.9623C47.2912 96.2168 48.7452 96.138 50.1236 95.7324C50.1849 96.8055 51.1967 97.641 52.2392 98.032C52.8754 98.2389 52.2392 99.3887 51.9709 99.9023C49.748 102.715 44.9418 101.251 43.6311 98.2159H43.6387ZM56.8154 97.4494C58.0879 98.9825 60.8244 99.0668 62.5874 98.2696C63.6759 97.894 63.7142 96.9128 64.726 97.8557C64.6647 99.9943 63.1393 100.692 61.0697 101.083C59.8585 101.489 59.0537 102.171 57.6203 102.003C54.9604 101.75 54.2859 98.3156 56.8077 97.4187L56.8154 97.4494ZM56.4398 101.949C57.2077 102.309 58.0741 102.401 58.9004 102.21C57.6739 103.405 58.3255 105.398 59.092 106.809C55.2593 107.629 54.0789 104.632 56.0259 101.658C56.1562 101.765 56.2942 101.872 56.4398 101.949ZM58.0649 107.246C58.5708 107.368 59.1533 106.747 59.5979 107.345C62.3651 108.947 65.9371 108.434 68.6506 107.138C68.793 107.645 69.0455 108.113 69.39 108.511C69.7345 108.909 70.1626 109.225 70.6436 109.438C70.7203 109.729 71.3182 109.806 71.7704 109.89C71.1276 110.573 70.7804 111.482 70.8046 112.42C68.3824 107.223 63.1853 108.25 59.9199 111.285C59.6132 111.577 59.6592 111.784 59.1533 111.538C57.076 111.147 55.7959 106.694 58.0649 107.253V107.246ZM62.5184 109.875C71.6554 106.425 71.2645 115.394 64.9176 118.307C55.9569 121.879 56.1562 112.895 62.5184 109.883V109.875ZM78.1863 127.72C78.7075 124.263 90.6501 124.723 90.3281 128.026C89.5156 131.376 77.6957 131.077 78.1863 127.72ZM88.4578 125.688C87.032 125.167 86.4418 122.622 87.078 121.189C89.048 121.748 87.3233 124.025 89.3163 125.259C89.3163 125.443 89.3776 125.727 89.4389 126.118C89.1254 125.963 88.8028 125.828 88.4731 125.711L88.4578 125.688ZM97.7788 121.442C97.315 121.284 96.9062 120.996 96.6006 120.613C96.295 120.23 96.1054 119.768 96.0541 119.28C96.733 119.434 97.4399 119.413 98.1084 119.219C97.9168 120.476 100.5 121.932 97.7941 121.442H97.7788ZM99.2352 120.928C98.9698 120.723 98.7492 120.465 98.587 120.171C98.4249 119.877 98.3246 119.553 98.2924 119.219C100.022 118.775 101.531 117.718 102.539 116.245C102.649 116.968 102.988 117.636 103.505 118.153C102.636 118.278 101.805 118.591 101.071 119.07C100.336 119.549 99.7145 120.184 99.2505 120.928H99.2352ZM102.708 115.999C103.259 115.156 103.615 114.2 103.75 113.202C104.471 113.455 105.682 112.834 106.487 113.202C107.283 113.78 108.221 114.132 109.201 114.218C110.181 114.304 111.167 114.123 112.052 113.692C112.289 118.445 103.811 121.541 102.715 115.999H102.708ZM112.374 114.152C112.783 114.718 113.259 115.233 113.792 115.685C110.726 118.215 114.512 117.885 109.093 120.185C107.881 120.001 106.695 119.677 105.559 119.219C108.372 119.74 112.052 117.349 112.389 114.152H112.374ZM112.374 118.383C112.396 118.556 112.437 118.726 112.496 118.889C111.262 119.089 111.791 119.28 112.412 118.383H112.374ZM119.127 120.514C116.314 116.528 111.323 121.005 112.803 116.919C113.033 116.613 113.669 115.386 114.206 115.976C114.903 116.44 115.703 116.727 116.537 116.812C117.37 116.898 118.211 116.779 118.989 116.467C119.206 116.954 119.582 117.354 120.055 117.6C120.528 117.847 121.071 117.925 121.595 117.824C121.694 118.485 121.979 119.104 122.415 119.61C121.271 119.618 120.149 119.93 119.165 120.514H119.127ZM146.791 109.407C147.941 113.761 135.247 116.72 135.293 111.339C137.937 113.393 145.679 110.825 146.545 108.319C146.622 108.564 146.722 108.917 146.829 109.407H146.791ZM146.109 108.441C144.346 111.669 133.216 113.332 135.538 109.53C137.209 106.778 147.281 105.015 146.147 108.441H146.109ZM145.863 103.72C145.802 106.632 142.904 106.433 140.498 106.226C140.292 105.757 139.975 105.345 139.575 105.025C139.174 104.706 138.701 104.49 138.198 104.394C138.604 104.394 139.141 103.743 139.693 104.003C141.785 104.624 144.292 104.624 145.994 103.045C145.986 103.267 145.94 103.482 145.902 103.72H145.863ZM145.227 100.761C147.918 103.988 141.693 104.318 139.685 103.697C140.98 102.715 140.98 100.493 140.337 98.9518C142.123 99.0974 143.993 99.45 145.265 100.761H145.227ZM140.153 99.2277C141.203 102.838 130.318 102.187 129.23 100.355C127.359 96.4682 139.371 96.9818 140.191 99.2431L140.153 99.2277ZM139.455 94.9352C140.176 96.6982 138.367 98.101 136.481 97.2961C134.146 96.7999 131.711 97.1191 129.582 98.2006C129.338 97.5502 129.159 96.8776 129.046 96.1923C131.981 97.9553 138.121 97.0278 139.148 93.6244C139.271 93.9694 139.371 94.3986 139.509 94.9505L139.455 94.9352ZM137.976 91.6698C142.077 95.7324 131.238 98.1929 129.023 95.832C131.361 95.7094 135.155 93.5784 134.687 90.9875C135.826 90.8944 136.968 91.1312 137.976 91.6698ZM134.342 90.8266C135.446 93.4251 130.318 95.8933 128.302 95.5484C128.377 94.7801 128.336 94.0048 128.179 93.2488C130.356 93.2488 133.17 92.0147 133.905 89.7764C134.013 90.0217 134.143 90.3667 134.365 90.8266H134.342ZM130.234 87.5382C137.094 88.0901 131.767 92.9805 127.995 92.9575C127.421 92.191 126.232 91.8077 125.221 91.5011C131.322 90.2517 127.444 87.3159 130.257 87.5382H130.234ZM128.777 87.0476C129.988 92.8349 119.579 91.6468 118.406 89.6155C119.173 89.6155 119.763 88.7493 120.644 89.1402C123.626 89.7381 127.628 89.6308 128.777 87.0476ZM122.124 83.8205C132.855 83.5369 128.609 90.9032 120.483 88.711C121.365 88.0901 121.549 85.0929 121.365 83.8818C121.627 83.911 121.892 83.8902 122.147 83.8205H122.124ZM118.123 82.0191C120.238 82.3258 122.476 84.5487 120.299 86.2121C118.245 87.4002 115.616 87.1319 113.355 86.3117C116.681 86.2274 116.543 84.564 117.187 81.8965C117.525 81.9731 117.816 81.9731 118.123 82.0191ZM115.654 79.8422C120.253 84.1961 111.239 84.587 108.656 83.4372C110.258 82.1035 112.887 81.4289 112.703 78.9607C113.744 79.0238 114.755 79.331 115.654 79.8575V79.8422ZM112.228 80.4171C100.485 89.2475 80.8001 98.9825 79.9876 99.3504C79.9876 99.841 79.3514 66.2286 79.3131 66.2746C79.2748 66.3206 113.447 52.4081 116.068 51.3579C115.578 55.0756 112.228 79.9418 112.228 80.4324V80.4171ZM104.386 32.6929C105.452 33.6512 106.353 34.7776 107.054 36.0273C110.442 42.1596 112.144 41.393 114.719 44.1755C115.468 45.1082 115.984 46.2059 116.224 47.3776C116.463 48.5494 116.421 49.7614 116.099 50.9133C116.015 50.9133 82.3179 64.6112 79.3821 66.0676C77.0825 57.7891 82.9004 56.1487 84.3339 51.1356C85.6063 47.5866 85.9742 43.9302 87.5993 40.4042C91.2173 32.9612 96.8283 28.9599 104.386 32.6929ZM100.462 30.8686C94.2374 29.987 90.1748 34.7932 87.7143 39.492C85.7213 43.271 85.4147 47.3336 83.9736 51.2353C83.2531 53.5809 81.5514 55.2826 80.1409 57.2909C79.3816 58.5557 78.8947 59.9651 78.7112 61.4288C78.5277 62.8926 78.6518 64.3786 79.0755 65.7917C76.7145 64.2126 73.7787 62.8789 71.3335 61.4608C69.9001 53.4122 76.0783 51.4959 78.2323 46.0229C81.4824 38.4036 82.2566 27.3195 92.9957 27.8101C94.6514 28.3007 100.523 30.9299 100.462 30.8686ZM91.9838 27.3808C82.0189 27.1892 80.7695 39.0168 77.734 46.0612C74.5299 52.4924 69.5628 54.0714 71.0575 61.3918C69.6395 60.6713 63.8522 57.5592 63.6299 57.4748C65.025 56.5703 65.8835 52.4617 61.8592 51.2123C63.2543 47.4486 67.4625 45.172 68.9879 41.2474C72.376 32.5396 75.2888 24.6597 83.552 24.3454C84.4488 24.629 89.6842 26.4917 91.9838 27.3808ZM74.6526 87.7681C74.6526 87.7681 69.8924 84.6407 69.2102 84.2114C69.2102 79.3439 69.1719 66.7192 69.1106 65.2781C70.1147 65.8147 73.8937 67.7463 74.7752 68.1526C74.7369 68.4669 74.6526 87.4768 74.6526 87.7681ZM68.8806 84.0044C67.5315 83.0386 63.7448 81.1606 63.7065 80.7007C63.4842 75.6723 63.2543 64.9332 63.1929 61.7521C64.588 62.7179 68.4743 64.9332 68.9419 65.2015C68.8193 67.8307 68.8806 83.0386 68.8806 84.0044ZM61.5526 57.4902C59.4983 55.9111 60.855 51.3579 63.4612 52.5384C65.6152 53.8875 64.1204 58.7319 61.5526 57.4902ZM50.9131 63.5458C50.2003 64.1194 49.6505 64.87 49.3187 65.7227C48.9755 66.4661 48.7728 67.2665 48.7208 68.0836C48.4303 68.3109 48.1284 68.5233 47.8163 68.7198C47.6324 66.5812 46.3369 52.845 46.2833 52.2701C46.6589 52.5 49.0198 53.9335 49.84 54.4087C49.9396 55.9418 50.4302 63.3848 50.6065 63.6914C51.1584 63.5228 50.0699 56.0261 50.0546 54.493C50.7675 54.907 51.465 55.3209 52.2086 55.6888C52.2699 57.1222 52.3542 58.5633 52.4309 59.9967C51.5733 60.9843 51.043 62.2136 50.9131 63.5151V63.5458ZM50.5069 51.6569C50.255 51.4065 50.0645 51.1011 49.9504 50.7648C49.8363 50.4284 49.8016 50.0702 49.8491 49.7183C49.8967 49.3663 50.0251 49.0301 50.2243 48.7361C50.4235 48.442 50.6882 48.1981 50.9974 48.0235C52.3159 47.4103 54.4698 48.3071 56.5395 49.2346C59.046 50.3461 61.4529 51.6339 62.3958 51.9865C60.2418 52.5 59.5826 55.4589 60.8627 57.1835C57.2747 55.5965 53.8128 53.7387 50.5069 51.6262V51.6569ZM73.1348 20.9956C76.3543 21.9155 79.5584 22.9196 82.7241 24.0081C70.153 25.8401 71.7398 40.9331 64.3274 46.8814C63.2159 48.1385 61.7825 49.5106 61.7979 51.174C61.7365 51.1356 55.0294 47.9545 53.1974 47.4409C52.4309 47.5023 53.3813 45.471 53.734 44.7658C55.4127 41.9373 58.1645 40.1666 59.8125 37.3381C63.8292 29.1285 63.3156 22.843 73.1348 20.9956ZM72.4986 20.804C63.055 22.6743 62.802 30.0867 60.0962 36.1346C57.5513 41.1401 53.0134 42.8571 52.5612 47.3643C51.8757 47.2824 51.1848 47.4641 50.6283 47.8726C50.0718 48.2811 49.6914 48.8858 49.564 49.5642C49.2344 49.112 44.5739 47.1803 44.8805 46.5671C44.6352 38.2502 49.1271 39.4384 51.7793 34.3716C55.1674 26.6066 56.2942 20.919 64.8103 19.2173C66.6883 18.7727 69.9921 20.2904 72.4986 20.804ZM38.1657 39.3464C38.7943 35.9277 42.9719 35.2225 44.1217 32.0184C45.5551 28.6073 45.9307 24.7286 48.7822 22.0535C51.511 19.0333 56.0105 17.9065 59.7282 17.6382C60.5867 17.6996 64.588 18.7267 64.979 18.834C54.4085 20.965 54.5925 28.4846 51.1814 34.7012C46.3983 41.0251 44.5892 38.8098 44.5892 46.6514C43.3168 45.8849 38.9629 43.432 38.0814 42.9337C37.9567 41.7392 37.9851 40.5337 38.1657 39.3464ZM38.1657 43.248C40.2967 44.5435 49.1884 49.6945 49.5794 49.8785C49.5794 51.9788 51.5263 52.4694 52.1012 52.8373C52.1242 53.6575 52.1242 54.5007 52.1242 55.3439C50.4839 54.6693 41.7991 48.79 42.351 50.2081C42.5349 52.3697 44.5049 68.5052 44.7962 70.2912C45.4554 70.6592 46.8045 71.5407 47.0958 71.671V70.4522C47.0958 70.4522 45.8234 69.9846 45.8234 69.6857C45.5321 67.5087 43.8687 52.5844 43.7307 50.7983C44.1217 50.9976 45.6547 51.9022 46.0303 52.1474C46.0303 52.1474 47.4101 67.57 47.5634 68.7582C47.462 68.8209 47.3647 68.89 47.2721 68.9651C47.2108 69.0264 47.2721 69.1108 47.3794 69.1338C48.6749 69.4174 58.9157 74.4458 58.9387 74.4995C58.9617 74.5531 61.5066 73.1887 62.0048 72.8591C61.8975 72.7978 60.3185 71.8549 60.3185 71.8319C59.1457 74.4152 56.4858 73.0661 57.2523 70.3525C56.984 70.3525 51.5647 67.7233 51.1201 67.4397C51.0568 67.9611 50.9621 68.4782 50.8365 68.9881C49.8246 70.5212 48.1843 68.8885 48.7438 68.3289C48.7773 68.5204 48.8612 68.6996 48.9868 68.848C49.1124 68.9965 49.2752 69.1088 49.4585 69.1736C49.6419 69.2383 49.8391 69.2532 50.0301 69.2165C50.2211 69.1799 50.3988 69.0931 50.5452 68.9651C50.8365 68.1449 50.8978 66.8112 51.879 66.4816C51.6183 68.3289 57.2447 69.7853 57.2447 68.0836C53.734 69.6167 50.5529 66.1136 51.3117 62.7639C51.7027 60.1194 55.2134 57.2219 57.444 58.9312C57.5926 59.1342 57.6808 59.375 57.6985 59.6259C57.7161 59.8768 57.6624 60.1276 57.5436 60.3493C57.0295 60.4287 56.5382 60.6168 56.1025 60.9012C53.9103 61.9514 52.8601 64.8029 54.9757 66.1213C55.3053 66.3206 56.1715 66.5276 56.1025 66.1213C55.7595 66.0888 55.4267 65.9863 55.1248 65.8202C54.8229 65.6541 54.5583 65.4278 54.3472 65.1555C55.1603 65.3402 55.9026 65.7562 56.4847 66.3533C57.0668 66.9503 57.4639 67.703 57.6279 68.5205C58.0802 70.0536 57.0147 71.6633 58.0419 72.6905C59.5749 73.6793 60.4641 71.4563 60.4028 70.1073C60.5867 66.6732 57.8579 63.0628 54.6538 62.5646C55.4508 61.6691 56.4928 61.0268 57.6509 60.7173C59.184 57.2679 53.8719 57.8658 52.5382 59.7744C52.4768 58.4023 52.2316 53.8645 52.1472 52.9983C54.9276 54.7386 57.8301 56.2756 60.832 57.5975C60.7554 59.4678 61.0773 71.0041 61.0773 72.0083C61.1616 72.0696 61.269 72.1156 61.3456 72.1769C61.3456 68.3442 61.0773 58.7243 61.039 57.6818C61.1386 57.6818 61.9818 58.3947 62.7867 57.9884C62.7867 59.6901 62.9093 67.5777 62.9936 71.9699C62.8557 73.5873 63.6222 76.1015 62.0891 75.3043C61.8285 75.8562 63.1393 75.7719 63.055 75.565C63.055 75.8179 63.2849 79.9648 63.3233 80.808C62.4187 80.2944 61.5142 79.7809 60.6327 79.275C60.5714 79.5816 59.9122 80.0415 59.8662 80.4018C60.0732 80.5704 60.9087 81.0993 62.1045 81.8428C66.2667 84.2651 75.1355 90.2747 74.8289 89.2705C74.8289 88.0824 74.9592 69.77 74.9362 68.2446C75.1585 67.938 74.116 67.6084 73.2728 67.1408C69.7621 65.3318 64.2967 62.212 63.1699 61.5374C63.009 61.3075 62.6334 57.4288 63.3539 57.6358C64.1971 58.1494 77.872 65.5157 78.9605 66.2133C78.9605 66.2133 79.5124 98.0856 79.5584 99.1741C76.6839 97.2194 58.6704 85.0469 55.7959 83.1153C55.6503 83.1153 55.2823 82.6017 55.3207 83.054C55.7116 83.5292 56.8537 83.8205 56.3478 84.1654C54.5235 87.1396 49.3111 87.9214 47.5404 84.8016C48.0311 84.3256 48.4152 83.7508 48.6672 83.1153C49.2038 83.1153 51.0128 82.9543 50.9668 82.2721C49.61 82.7703 48.031 83.1766 46.6972 82.3794C46.4749 82.5021 50.6372 82.9083 50.4532 81.7585C48.8128 82.2108 46.4902 82.686 45.2408 81.0456C44.091 79.1753 45.8157 78.6004 46.7739 77.6576C47.0421 77.7572 48.3069 79.068 48.1766 78.3321C42.9259 74.4305 41.7761 73.7943 41.6994 73.3114C41.4925 70.0459 38.3267 45.3407 38.1274 43.248H38.1657ZM39.3155 74.3538C39.9038 73.7583 40.6519 73.3456 41.4695 73.1657C41.7991 74.4535 44.3286 75.6033 45.3711 76.5308C43.4854 77.6806 37.4298 77.5579 39.3155 74.3538ZM31.7805 81.3753C32.547 77.9105 37.9128 77.2667 40.427 79.0757C39.1315 80.1028 38.1274 82.2184 39.1699 83.6749C36.7246 84.5027 31.9262 84.541 31.7805 81.3983V81.3753ZM25.9319 83.7592C27.143 82.0575 29.4579 81.7049 31.4739 81.4596C31.6195 82.916 31.3896 85.1159 33.2599 85.7905C31.3513 87.1932 23.9772 87.1319 25.9319 83.7822V83.7592ZM33.6509 85.9974C34.4459 86.2625 35.2741 86.4147 36.1114 86.4497C34.1184 89.0789 25.311 90.474 25.7249 85.8518C27.0204 87.1702 30.945 87.6608 33.6509 86.0204V85.9974ZM19.5007 88.7876C21.1647 87.2782 23.2977 86.3877 25.541 86.2657C25.541 86.5723 25.6176 87.0859 25.7249 87.6225C27.4266 89.8378 32.0258 89.3242 34.1568 88.2587C34.0724 88.3583 33.5205 89.0252 33.8272 89.1555C35.7971 85.7061 40.7259 86.534 43.4548 87.9674C41.8374 86.1431 38.2807 86.0817 36.1037 86.9786C37.1539 85.8901 39.5148 86.4267 40.8486 85.1312C41.7761 86.1814 43.7844 86.5493 45.2255 86.1584C45.1145 86.3634 45.0821 86.6018 45.1344 86.829C45.1866 87.0562 45.3198 87.2565 45.5091 87.3925C43.7844 87.7835 41.1782 88.7263 41.3238 91.0259C41.2012 91.3938 41.7761 91.9074 41.1782 92.1373C40.2737 92.5053 37.9128 93.0189 37.8131 91.8691C36.8856 87.8448 28.8217 89.3012 26.7214 90.6579C24.2609 91.7694 25.3033 92.9575 23.6553 93.2871C20.1752 94.069 15.8214 92.0837 19.5007 88.8106V88.7876ZM18.1669 92.3213C19.7 93.8544 22.3369 94.1073 24.3912 93.4328C24.1229 93.8007 25.0274 94.7052 24.3912 94.9658C23.212 95.3535 21.9324 95.3016 20.7885 94.8198C19.6446 94.338 18.7135 93.4588 18.1669 92.3443V92.3213ZM13.8744 96.9205C14.4876 95.0118 16.8562 94.2146 18.7188 93.6781C19.4686 94.4841 20.4375 95.0535 21.5065 95.3164C22.5755 95.5792 23.6981 95.524 24.7361 95.1575C26.5834 99.2661 13.4451 101.182 13.8744 96.9205ZM11.1838 101.949C11.8731 100.841 12.8368 99.9302 13.9817 99.3044C14.6945 101.336 17.3008 101.949 19.3474 101.911C17.5537 106.548 7.20555 108.618 11.1838 101.949ZM4.57634 108.081C5.82579 106.548 8.02573 106.134 9.99572 106.096C11.6361 106.157 12.3796 108.395 14.4263 108.104C15.3451 108.033 16.2435 107.797 17.0785 107.407C18.8261 108.848 16.7718 110.634 15.2694 111.124C12.5636 112.381 2.16944 112.013 4.59934 108.028L4.57634 108.081ZM4.67599 111.799C4.4752 111.262 4.30376 110.714 4.16242 110.158C7.01391 113.317 16.3196 112.604 17.8603 109.561C19.2554 115.034 5.88711 114.704 4.67599 111.745V111.799ZM5.18957 112.933C8.25569 114.635 12.395 114.367 15.7064 113.401C15.6374 117.165 1.31092 118.238 5.18957 112.88V112.933ZM8.43199 119.058C6.50034 118.958 4.49203 117.663 4.49203 115.379C5.92544 117.188 9.04522 117.126 11.1838 116.651C9.12954 117.762 9.56646 119.204 8.43199 119.058ZM16.0973 124.048C12.9392 124.646 11.5748 123.879 9.9114 121.258C12.6019 122.983 16.9558 121.871 19.0101 120.231C19.3512 120.862 19.8538 121.391 20.4665 121.764C19.2514 122.917 17.7381 123.709 16.0973 124.048ZM19.3167 120.346C18.9641 119.579 19.4624 118.767 19.401 117.716C21.1027 120.844 28.5994 122.032 30.6307 119.487C30.5911 120.231 30.5014 120.971 30.3624 121.702C29.3966 123.473 22.8351 124.217 19.3167 120.346ZM30.8147 120.284C31.5797 120.906 32.4976 121.311 33.4725 121.456C34.4473 121.602 35.4435 121.483 36.3567 121.112C36.3568 121.361 36.421 121.605 36.5432 121.821C36.6655 122.037 36.8415 122.218 37.0542 122.346C37.0542 123.45 29.6189 124.278 30.8147 120.346V120.284ZM36.9469 121.948C36.4487 121.296 36.6327 120.415 36.3107 119.441C38.8096 121.909 46.3906 120.882 47.5787 117.847C47.64 118.544 48.0923 119.38 47.8853 120.246C46.9655 122.331 41.1169 124.5 36.9163 121.971L36.9469 121.948ZM51.0128 122.461C48.7668 121.695 48.4219 121.212 48.0923 118.912C50.3919 121.641 56.9611 120.33 58.6474 118.521C51.7486 121.587 45.693 119.817 48.8512 115.279C51.2734 111.99 55.5276 112.052 58.5018 112.749C56.2761 111.903 53.8133 111.925 51.603 112.811C51.4497 112.237 51.2065 111.691 50.8825 111.193C55.175 108.894 54.8454 104.639 51.1661 102.256C49.5763 101.932 47.9246 102.13 46.4565 102.821C44.9884 103.511 43.7824 104.657 43.0179 106.088C42.5886 106.602 41.2088 105.843 40.3887 106.173C42.0137 105.72 41.9217 103.873 42.1977 102.34C42.5182 102.439 42.8554 102.473 43.1893 102.44C43.5233 102.407 43.8471 102.307 44.1416 102.146C44.4362 101.985 44.6954 101.767 44.904 101.504C45.1125 101.241 45.2662 100.939 45.3558 100.615C47.8623 102.524 52.7068 101.826 52.7911 98.1699C53.6595 98.3629 54.5618 98.3418 55.4203 98.1086C55.087 98.6438 54.9534 99.2796 55.0432 99.9037C55.133 100.528 55.4403 101.1 55.9109 101.52C54.5388 103.306 54.3088 106.471 56.961 107.123C56.7778 107.596 56.6959 108.102 56.7206 108.609C56.7453 109.115 56.876 109.611 57.1043 110.064C57.3326 110.517 57.6534 110.917 58.0459 111.239C58.4385 111.56 58.8941 111.795 59.3833 111.929C56.4858 115.67 57.1833 117.188 59.9582 119.916C58.8758 121.174 57.4492 122.087 55.8542 122.543C54.2593 122.999 52.5656 122.979 50.9821 122.484L51.0128 122.461ZM57.5589 122.239C58.5882 121.744 59.4784 121.001 60.1498 120.077C61.8898 122.216 65.2396 121.664 67.4932 120.453C68.459 122.4 66.2054 124.025 64.8103 125.213C60.3185 128.778 52.6838 126.815 57.5283 122.262L57.5589 122.239ZM61.5449 128.808C59.3756 129.069 57.7659 128.586 56.6314 126.654C60.97 129.36 68.643 124.148 68.0527 120.967C71.4945 124.646 64.7183 128.686 61.5142 128.831L61.5449 128.808ZM67.6771 128.992C66.3204 128.517 65.6842 127.459 67.2709 126.693C68.5817 125.466 70.222 123.427 68.8039 121.725C75.1738 117.479 77.3661 125.98 72.3606 128.417C70.7509 128.295 69.2715 128.778 67.6695 129.015L67.6771 128.992ZM66.9106 130.042C69.9767 127.329 81.5897 128.908 77.3814 132.603C75.1202 134.396 63.4382 133.883 66.8723 130.065L66.9106 130.042ZM77.0288 135.354C73.7557 137.102 65.6765 136.979 66.2514 132.235C68.551 134.68 77.2588 134.396 78.3473 132.074C78.4929 133.208 78.1863 134.726 76.9905 135.377L77.0288 135.354ZM90.1135 131.453C87.446 133.798 79.2901 134.128 78.3473 130.686C78.5312 130.211 78.1786 129.621 78.2016 128.839C80.5012 131.775 89.0404 131.016 90.4661 128.739C90.2975 129.49 90.7727 130.702 90.0752 131.476L90.1135 131.453ZM96.0848 129.667C94.2444 129.909 92.3738 129.588 90.7191 128.747C90.972 127.697 90.2668 126.815 89.7379 125.934C91.271 127.29 93.8848 127.106 95.8701 127.083C95.8943 127.952 95.9995 128.817 96.1844 129.667H96.0848ZM112.78 135.477C111.768 139.31 99.8638 138.62 101.282 133.568C103.275 136.282 111.423 135.929 112.925 133.76C112.937 134.345 112.875 134.93 112.741 135.5L112.78 135.477ZM111.668 131.644C116.865 135.477 102.347 136.144 101.504 133.285C101.037 129.797 110.243 130.686 111.63 131.706L111.668 131.644ZM107.889 129.283C107.299 130.97 104.823 130.203 103.374 130.908C101.382 131.828 100.477 132.587 98.369 131.867C96.0694 131.338 96.5984 130.065 96.2304 128.563C98.7753 131.108 106.724 129.444 107.583 126.509C107.613 127.459 107.702 128.406 107.851 129.345L107.889 129.283ZM106.87 124.393C105.337 123.626 103.436 123.626 101.627 123.818C101.941 122.484 100.339 121.687 99.1279 121.518C100.216 119.51 103.068 117.142 105.367 119.219C106.188 119.771 107.092 119.464 107.192 120.714C107.46 122.645 106.356 122.852 107.521 125.152C107.339 124.876 107.105 124.639 106.832 124.454L106.87 124.393ZM107.422 124.171C110.235 126.24 114.773 125.704 117.647 123.925C117.742 124.63 117.878 125.329 118.054 126.018C114.803 128.54 108.257 128.632 107.383 124.232L107.422 124.171ZM130.088 123.941C130.755 128.617 121.258 129.306 118.897 127.007C118.13 126.187 118.176 124.976 117.854 123.741C119.901 127.191 129.084 125.88 129.843 122.408C129.866 122.814 129.973 123.473 130.05 124.002L130.088 123.941ZM129.452 121.357C129.965 125.527 122.392 125.796 120.047 124.968C115.164 122.837 119.579 119.878 122.614 119.671C127.114 123.121 128.923 119.579 129.414 121.419L129.452 121.357ZM129.613 119.778C128.898 120.359 128.036 120.731 127.124 120.854C126.211 120.977 125.282 120.846 124.439 120.476C129.207 120.637 132.165 114.029 129.758 110.143C133.461 111.975 132.135 117.502 129.544 119.84L129.613 119.778ZM135.745 119.388C134.177 119.357 132.636 118.963 131.246 118.238C131.635 117.578 131.927 116.865 132.112 116.122C134.864 117.295 138.865 117.494 141.003 115.632C140.505 119.342 138.65 119.219 135.737 119.449L135.745 119.388Z" fill="black"/>
<path d="M55.957 82.7853C59.9583 81.4746 61.913 77.205 62.1353 73.1577C61.6677 73.449 59.2608 74.6908 59.1611 74.6908C59.6824 77.5423 58.5786 81.2523 55.957 82.7853Z" fill="black"/>
<path d="M53.8566 82.9618C57.7735 83.1458 59.4369 77.5194 58.8007 74.7293C57.6509 74.231 48.9891 69.9615 47.525 69.3022C46.7585 74.3997 48.1612 82.6935 53.8566 82.9618ZM51.304 79.1828C51.4956 78.5466 52.3542 76.7146 52.2928 76.5536C51.143 75.5265 50.9821 72.8589 52.9904 73.9014C54.0788 74.4763 54.8147 77.0902 53.32 77.0672C53.3813 77.3585 54.3855 80.6162 54.0405 80.6622C53.8566 80.6622 51.2044 79.5124 51.304 79.1828Z" fill="black"/>
</svg>
